<svg 
    id="Patients_icon" 
    title="Patients_icon" 
    data-name="Patients icon" 
    xmlns="http://www.w3.org/2000/svg" 
    width="33.614" 
    height="19" 
    viewBox="0 0 33.614 19">
    <path 
        id="user-friends" 
        d="M18.86,41.43a4.715,4.715,0,1,1,4.715-4.715A4.713,4.713,0,0,1,18.86,41.43Zm-3.233,1.347h.349a6.51,6.51,0,0,0,5.767,0h.349a4.851,4.851,0,0,1,4.85,4.85v1.212a2.021,2.021,0,0,1-2.021,2.021H12.8a2.021,2.021,0,0,1-2.021-2.021V47.627A4.851,4.851,0,0,1,15.627,42.777ZM6.736,41.43a4.041,4.041,0,1,1,4.041-4.041A4.042,4.042,0,0,1,6.736,41.43ZM4.715,42.777h.16a5.672,5.672,0,0,0,1.861.337A5.672,5.672,0,0,0,8.6,42.777h.16a4.676,4.676,0,0,1,2.345.648,6.161,6.161,0,0,0-1.671,4.2v1.617c0,.093.021.181.025.269H2.021A2.021,2.021,0,0,1,0,47.492,4.713,4.713,0,0,1,4.715,42.777Z" 
        transform="translate(0 -32)"
    />
    <circle 
        id="staffcircle" 
        data-name="staffcircle" 
        cx="6" 
        cy="6" 
        r="6" 
        transform="translate(21.614 7)"
        />
    <path 
        id="plus-circle" 
        d="M13,8a5,5,0,1,0,5,5A5,5,0,0,0,13,8Zm2.9,5.565a.243.243,0,0,1-.242.242H13.806v1.855a.243.243,0,0,1-.242.242H12.435a.243.243,0,0,1-.242-.242V13.806H10.339a.243.243,0,0,1-.242-.242V12.435a.243.243,0,0,1,.242-.242h1.855V10.339a.243.243,0,0,1,.242-.242h1.129a.243.243,0,0,1,.242.242v1.855h1.855a.243.243,0,0,1,.242.242Z" 
        transform="translate(14.614)"
    />
</svg>
